# xmcd
#
# Track frame offsets:
#	150
#	21525
#	39935
#	54062
#	82855
#	97960
#	115531
#	139988
#	163701
#	184855
#	201441
#	222720
#
# Disc length: 3208 seconds
#
# Revision: 0
# Processed by: cddbd v1.4PL0 Copyright (c) Steve Scherf et al.
# Submitted via: EasyCDDAExtractor 5.0.5.1
#
DISCID=a10c860c
DTITLE=John Lee Hooker - Chill Out
DYEAR=1995
DGENRE=Blues
TTITLE0=Chill Out (Things Gonna Change)
TTITLE1=Deep Blue Sea
TTITLE2=Kiddio
TTITLE3=Medley: Serves Me Right to Suffer/Syndicator
TTITLE4=One Bourbon, One Scotch, One Beer
TTITLE5=Tupelo
TTITLE6=Woman on My Mind
TTITLE7=Annie Mae
TTITLE8=Too Young
TTITLE9=Talkin' the Blues
TTITLE10=If You've Never Been In Love
TTITLE11=We'll Meet Again
EXTD=
EXTT0=
EXTT1=
EXTT2=
EXTT3=
EXTT4=
EXTT5=
EXTT6=
EXTT7=
EXTT8=
EXTT9=
EXTT10=
EXTT11=
PLAYORDER=
